<svg xmlns="http://www.w3.org/2000/svg" viewBox="0 0 1067 800" width="1067" height="800">
<rect width="1067" height="800" fill="#f5f5f2"/><g fill="none" stroke="#111" stroke-width="8" stroke-linejoin="round" stroke-linecap="round">
<path d="M0 650H1067"/><rect x="209" y="170" width="650" height="385" rx="24"/><rect x="244" y="210" width="580" height="300" stroke-width="5"/><path d="M534 212V508"/>
<circle cx="379" cy="315" r="45" stroke-width="5"/><path d="M309 455c18-66 122-66 140 0" stroke-width="5"/>
<circle cx="679" cy="315" r="45" stroke-width="5"/><path d="M609 455c18-66 122-66 140 0" stroke-width="5"/>
<circle cx="479" cy="484" r="14" stroke-width="3"/><circle cx="534" cy="484" r="14" stroke-width="3"/><circle cx="589" cy="484" r="14" stroke-width="3"/>
<rect x="479" y="145" width="110" height="35" rx="14" stroke-width="5"/><circle cx="534" cy="162" r="10" stroke-width="3"/>
<path d="M484 555h100l35 70H449z"/><path d="M404 630H664"/>
<path d="M784 590c0-170 190-170 190 0"/><rect x="784" y="520" width="40" height="90" rx="15" stroke-width="5"/><rect x="934" y="520" width="40" height="90" rx="15" stroke-width="5"/><path d="M964 600c55 10 70 35 70 60" stroke-width="5"/>
</g></svg>